<?xml version="1.0" encoding="utf-8"?>
<!-- Generator: Adobe Illustrator 28.0.0, SVG Export Plug-In . SVG Version: 6.00 Build 0)  -->
<svg version="1.1" xmlns="http://www.w3.org/2000/svg" xmlns:xlink="http://www.w3.org/1999/xlink" x="0px" y="0px"
	 viewBox="0 0 110.05 144.95" style="enable-background:new 0 0 110.05 144.95;" xml:space="preserve">
<style type="text/css">
	.st0{fill:#DA2032;}
	.st1{fill:#4D4D4D;}
	.st2{fill:#FFFFFF;}
	.st3{fill:#C49A6C;}
</style>
<g id="圖層_3">
</g>
<g id="圖層_1">
	<g>
		<g>
			<path class="st0" d="M39.27,134.51c-0.23-2.52-1.26-1.75-1.26-1.75s-1.84,1.03-2.18,1.26c-0.34,0.23-3.1-2.96-3.1-2.96l-0.01,0
				c-0.69,0.61-1.6,1.15-2.59,1.73c0.2-1.03-0.41-1.55-0.98-1.82l-1.62-1.18c-0.68,0.49-1.25,1.3-1.75,3.06
				c-0.66-0.79-0.24-4.75-0.52-5.16c-0.3,0.38-0.71,0.69-1.17,0.85c-0.38,0.14-0.8,0.19-1.14,0.4c-0.11-0.08-0.08-0.25-0.04-0.39
				c0.13-0.51,0.01-1.08-0.3-1.51c-0.61,0.16,0,0-1.16,0.53c-0.33,0.15-0.05,6.68-0.05,9.35c0.05,0.05,0.11,0.09,0.17,0.14
				c0.79,0.68,1.6,1.34,2.43,1.98c4.47,2.94,9.28,4.55,14.13,5.3c0-0.02,0-0.03,0-0.05c0.69,0.11,1.39,0.21,2.11,0.29
				c-0.41-2.71-0.74-6.47-0.75-6.77C39.36,135.38,39.43,136.35,39.27,134.51z"/>
			<path class="st0" d="M88.51,20.51c-4.13,0.67-7.32,2.06-9.5,4.17c-13.18,12.68,2.43,29.41-7.87,46.81
				c0.27-29.12-13.92-26.44-9.06-58.11C62.65,9.64,65.99,6.66,66.82,0C53.94,2.16,47.51,6.6,42.37,14.87
				C35.15,26.49,43.3,36.78,31.5,56.66c1.25-13.73-3.19-21.42-11.26-29.93c3.59,8.51-3.58,20.61-15.23,43.45
				c-9.97,19.56-4.36,44.95,10.67,61.24c0.17,0.16,0.36,0.34,0.56,0.54c0.37-5.06,0.44-11.52,0.29-14.62
				c-0.17-3.4-1.43-6.83-2.29-10.57v-0.06c0.05-0.55-0.29-2.16-0.61-4.31c-0.05-0.75-0.19-1.46-0.16-2.24l-0.08,0.49
				c-0.57-5.26-0.47-12.95,4.56-19.76c2.27-3.08,4.53-4.45,7.19-7.05c2.7-2.63,3.59-9.15,5.87-11.92c1.58-1.91,4.56-4.49,8.24-4.77
				c0,0,3.84-2.5,9.58-4.2c0.62-0.18,1.19,1.17,1.05,1.79c-0.47,2.16-0.6,2.51-0.5,4.75c0,0,0.39,1.25,2.36,2.31
				c2.8,1.51,4.57,4.14,5.97,6.01c1.39,1.86,0.63,3.45,2.48,5.06c2.11,1.83,3.84,3.29,5.05,4.03c1.27,0.78,1.75,3.71,1.22,4.62
				c-1.2,2.05-3.08,2.31-6,2.47c-1.71,0.1-4.44,0.52-5.27,2.39c-1.57,3.58-2.45,6.42-2.35,10.38c0.07,2.54,0.89,5.76,1.7,7.6
				c0.8,1.84,3.53,4.35,5.48,8.48c1.95,4.13,0.83,3.8,1.63,5.98c0.39,1.04,1.23,2.73,2.14,4.31c0,0,1.91,2.61,6.13,0.72
				c1.4-1.61,3-3.33,4.51-3.7c2.82-0.71,5.35-3.28,8.02-4.48c2.29-1.02,4.81-1.82,7.31-2.09c4.66-0.52,6.07-4.14,8.03-7.9
				c0.5-0.96,3.53-4.29,4.89-4.05c1.43,0.25-2.62,15.82-4.78,19.61c-2.17,3.78-11.34,16.3-33.84,18.25c-3.99,0.34-5.9-1.72-8.29-2.2
				c-1.8,0.64-4.39,1.57-5.87,2.1c-0.77,0.28-1.55,0.11-2.21-0.29c-0.47,1.77-1.02,4.07-1.23,5.83c14.5,0.23,29.52-1.53,42.51-9.02
				c12.63-7.28,19.5-20.46,20.67-34.76C114.51,41.38,74.62,48.29,88.51,20.51z M102.1,94.92c-0.1,0.81-1.24,0.87-1.44,0.08
				c-0.22-0.91-0.48-1.8-0.73-2.64c-2.27-7.7-6.44-14.81-11.1-21.29c-6.15-8.56-6.42-17.99-6.7-28.47
				c-0.06-2.33,0.04-4.65,0.19-6.98c0.02-0.38,0.03-0.82,0.05-1.29c0.03-0.82,1.23-0.91,1.36-0.1c0.33,1.97,0.44,4.02,0.59,5.1
				c0.41,2.84,0.91,5.67,1.7,8.43c2.12,7.44,5.75,14.38,10.05,20.78C103.31,79.34,103.3,85.43,102.1,94.92z"/>
		</g>
	</g>
</g>
</svg>
