<?xml version="1.0" encoding="UTF-8"?>
<svg id="Layer_1" data-name="Layer 1" xmlns="http://www.w3.org/2000/svg" viewBox="0 0 34.48 14.5">
  <path d="M.41,6.4l-.03-.49.68-.16s.02-.12.03-.27c0-.14.01-.33.02-.57,0-.24.01-.5.01-.79v-1.72c0-.31,0-.58-.01-.82,0-.24-.01-.43-.02-.58,0-.15-.02-.23-.03-.25l-.68-.16.03-.49h2.67l.03.49-.67.16s-.03.11-.04.26-.02.33-.02.56c0,.23,0,.51,0,.82v1.72c0,.3,0,.57,0,.8,0,.23.01.42.02.56s.02.23.04.27l.67.16-.03.49H.41ZM2.19,3.56v-.76c.16.02.36.04.6.04.24,0,.54.01.9.01s.65,0,.89-.01c.23,0,.43-.02.59-.04v.76c-.15-.01-.34-.03-.57-.03-.23,0-.53-.01-.9-.01s-.69,0-.92.01c-.23,0-.42.02-.57.03ZM4.26,6.4l-.03-.49.67-.16s.03-.12.04-.27.02-.33.02-.56c0-.23,0-.5,0-.8v-1.72c0-.32,0-.59,0-.82,0-.23-.01-.42-.02-.56s-.02-.23-.04-.26l-.67-.16.03-.49h2.69l.03.49-.67.16s-.03.12-.04.27-.02.34-.03.58c0,.24-.01.5-.01.79v1.72c0,.28,0,.54.01.77,0,.24.02.43.03.58s.02.24.04.28l.67.16-.03.49h-2.69Z"/>
  <path d="M10.86,6.5c-.64,0-1.22-.14-1.72-.41-.5-.27-.9-.65-1.18-1.13-.29-.48-.43-1.03-.43-1.65s.14-1.21.43-1.7c.29-.5.68-.89,1.19-1.18s1.08-.43,1.72-.43,1.18.13,1.66.4c.48.27.85.64,1.12,1.12.27.48.41,1.03.41,1.66,0,.53-.1,1-.28,1.41-.19.41-.44.76-.75,1.04-.31.28-.66.5-1.03.64-.38.15-.75.22-1.13.22ZM10.95,5.77c.35,0,.65-.09.89-.27.24-.18.43-.45.55-.79.12-.35.19-.76.19-1.25,0-.57-.08-1.06-.23-1.48-.15-.42-.37-.74-.64-.98-.27-.23-.59-.35-.97-.35-.53,0-.95.21-1.25.64-.3.43-.46,1.01-.46,1.76,0,.54.08,1.01.25,1.42.16.41.39.73.68.96.29.23.62.35.99.35Z"/>
  <path d="M19.73,4.55v-1.89c0-.37,0-.7,0-.97,0-.28-.01-.49-.02-.65-.01-.16-.02-.26-.04-.29l-.74-.16.03-.49h2.2l.03.49-.68.16s-.02.12-.03.29c-.01.16-.02.38-.03.65,0,.28-.01.6-.01.97v2.21c0,.3,0,.58,0,.83,0,.25,0,.5,0,.75h-.6L15.67,1.36h.45s0,2.37,0,2.37c0,.4,0,.75.01,1.03,0,.29.02.51.03.67.01.16.02.26.04.31l.74.16-.03.49h-2.23l-.03-.49.68-.16s.02-.15.03-.32c0-.17.01-.4.02-.69,0-.29.01-.62.01-1v-1.57c0-.25,0-.48-.01-.68,0-.21-.02-.37-.03-.5s-.02-.21-.03-.24l-.68-.16.03-.49h1.62l3.79,4.46h-.35Z"/>
  <path d="M25.25,6.5c-.67,0-1.27-.12-1.8-.37-.53-.24-.95-.6-1.25-1.06s-.45-1.04-.45-1.71c0-.5.09-.96.27-1.37.18-.41.43-.77.76-1.06.33-.3.72-.53,1.17-.69.45-.16.96-.24,1.52-.24.31,0,.64.03.97.1.33.06.6.15.83.26l.05,1.48-.6.03-.33-.98c-.14-.09-.31-.15-.5-.18-.19-.04-.36-.05-.52-.05-.47,0-.85.1-1.17.31s-.54.49-.7.86c-.15.37-.23.79-.23,1.27,0,.57.1,1.07.3,1.48.2.41.46.73.79.94s.7.32,1.11.32c.14,0,.29-.02.46-.06.17-.04.33-.11.46-.2l-.21.59v-1.14c0-.18,0-.36-.01-.53,0-.18-.02-.31-.03-.4l-.75-.14.03-.52h2.48l.03.49-.52.15s0,.15,0,.3c0,.15,0,.32,0,.49,0,.14,0,.29.01.46,0,.16.01.36.02.58-.3.19-.65.33-1.04.43-.39.1-.78.15-1.15.15Z"/>
  <path d="M5.49,8.75l-2.25,3.56.4-.96v1.05c0,.18,0,.35,0,.5,0,.15,0,.29.01.41,0,.12.01.21.02.29.01.08.02.12.03.15l.75.15-.03.5H1.6l-.03-.5.75-.15s.01-.07.02-.15c0-.07.01-.17.02-.29,0-.12.01-.25.02-.41,0-.15,0-.32,0-.5v-1.05l.3.96-2.14-3.56-.55-.16.03-.49h2.62l.03.49-.67.16,1.44,2.42h-.23l1.42-2.42-.75-.16.03-.49h2.07l.03.49-.55.16Z"/>
  <path d="M7.29,14.4l-.21-.49.62-.16s-.02-.12-.07-.27c-.05-.14-.11-.33-.19-.57-.08-.24-.17-.5-.28-.79l-.62-1.72c-.11-.31-.21-.58-.31-.82-.09-.24-.17-.43-.23-.58-.06-.15-.1-.23-.12-.25l-.74-.16-.15-.49h2.69l.21.49-.62.16s.01.11.06.26.1.33.18.56c.08.23.18.51.29.82l.62,1.72c.11.3.21.57.3.8.09.23.16.42.23.56s.11.23.14.27l.74.16.15.49h-2.69Z"/>
  <path d="M14.45,12.55v-1.89c0-.37,0-.7,0-.97,0-.28-.01-.49-.02-.65-.01-.16-.02-.26-.04-.29l-.74-.16.03-.49h2.2l.03.49-.68.16s-.02.12-.03.29c-.01.16-.02.38-.03.65,0,.28-.01.6-.01.97v2.21c0,.3,0,.58,0,.83,0,.25,0,.5,0,.75h-.6l-4.19-5.09h.45s0,2.37,0,2.37c0,.4,0,.75.01,1.03,0,.29.02.51.03.67.01.16.02.26.04.31l.74.16-.03.49h-2.23l-.03-.49.68-.16s.02-.15.03-.32c0-.17.01-.4.02-.69,0-.29.01-.62.01-1v-1.57c0-.25,0-.48-.01-.68,0-.21-.02-.37-.03-.5s-.02-.21-.03-.24l-.68-.16.03-.49h1.62l3.79,4.46h-.35Z"/>
  <path d="M15.73,8.1h2.66l.03.49-.68.17c0,.06-.01.15-.02.29,0,.14-.01.31-.02.53,0,.22,0,.49,0,.81v1.29c0,.43.06.79.19,1.07.12.28.31.49.54.63.24.14.52.21.85.21s.59-.07.82-.2c.22-.14.39-.35.5-.64.11-.29.17-.66.17-1.1v-1.06c0-.37,0-.68-.01-.95,0-.26-.01-.47-.02-.62,0-.15-.02-.24-.03-.26l-.75-.17.03-.49h2.29l.03.49-.68.17s-.01.11-.02.26c0,.15-.01.36-.02.62,0,.26-.01.58-.01.95v1.2c0,.58-.1,1.07-.31,1.47s-.49.71-.86.92c-.37.21-.81.32-1.3.32-.86,0-1.52-.23-1.99-.69-.47-.46-.7-1.11-.7-1.96v-1.46c0-.33,0-.61-.01-.85,0-.24-.01-.42-.02-.55,0-.13-.01-.21-.02-.23l-.68-.17.03-.49Z"/>
  <path d="M29.07,14.47c-.16-.01-.34-.03-.53-.03-.19,0-.37-.01-.54-.02-.17,0-.31-.01-.43-.01h-3.31l-.21-.49.62-.16s-.02-.13-.07-.28c-.05-.15-.11-.34-.19-.58-.08-.24-.17-.49-.28-.77l-.62-1.72c-.11-.29-.2-.56-.29-.79-.09-.23-.16-.42-.22-.57-.06-.15-.11-.24-.13-.27l-.74-.17-.15-.49h2.9l.22.52-.84.15s.02.1.06.24c.04.14.1.33.18.56.08.24.17.51.29.83l.62,1.72c.15.4.27.73.37.99.1.26.17.44.21.52.12.02.25.04.38.04.13,0,.28.01.46.01h.5c.17,0,.31,0,.43-.02s.21-.03.3-.04l.18-1.13.66.15.17,1.83Z"/>
  <path d="M34.48,14.47c-.16-.01-.34-.03-.53-.03-.19,0-.37-.01-.54-.02-.17,0-.31-.01-.43-.01h-3.31l-.21-.49.62-.16s-.02-.13-.07-.28c-.05-.15-.11-.34-.19-.58-.08-.24-.17-.49-.28-.77l-.62-1.72c-.11-.29-.2-.56-.29-.79-.09-.23-.16-.42-.22-.57-.06-.15-.11-.24-.13-.27l-.74-.17-.15-.49h2.9l.22.52-.84.15s.02.1.06.24c.04.14.1.33.18.56.08.24.17.51.29.83l.62,1.72c.15.4.27.73.37.99.1.26.17.44.21.52.12.02.25.04.38.04.13,0,.28.01.46.01h.5c.17,0,.31,0,.43-.02s.21-.03.3-.04l.18-1.13.66.15.17,1.83Z"/>
</svg>